<svg xmlns="http://www.w3.org/2000/svg" width="751" height="771" viewBox="0 0 519.22 533.04"  shape-rendering="geometricPrecision" image-rendering="optimizeQuality" fill-rule="evenodd" xmlns:v="https://vecta.io/nano"><path d="M374.45 4.48c-28.98-.85-52.84 11.08-73.29 34.94-20.46 24.71-30.68 53.69-31.53 88.63 0 34.09 9.37 63.91 28.97 89.47 5.12 6.82 10.23 12.79 16.19 17.05 16.18 13.63 34.09 20.45 55.39 20.45 26.42.85 50.28-10.23 69.88-32.38.85-.86 1.71-1.71 2.56-3.41 20.45-23.87 31.52-52.84 31.52-87.78.86-34.09-8.52-63.91-28.12-89.47-20.45-24.72-43.46-37.5-71.58-37.5h.01zm0 0h0z" fill="#f9ece7" fill-rule="nonzero"/><path d="M248.19 452.29l9.4 62.49z" fill="#e6e5e5"/><path d="M333.75 249.69s-1.42 25.44-22.06 27.36c8.63 29.27 32.6 62.37 55.16 62.37s57.59-38.86 58.55-58.54c-9.6-4.79-11.51-7.67-11.51-7.67l-1.92-25.43s-33.99 8.63-58.54 8.63c-6.72 0-19.68-6.72-19.68-6.72zm-89.51 149.16s-33.25-49.66-35.31-47.36c-19.29 21.47-45.02 46.22-45.02 46.22l-49.28-54.16s12.61-48.12 11.61-68.56c-11.15-17.98-24.51 26.76-24.51 26.76s-3.98-36.64-9.39-51.09c-2.33-6.22-4.87-11.24-7.36-12.86-8.29-5.4-1.58 51.45-1.58 51.45s-17.73-31.02-27.43-42.04c0 0-8.86-7.92-9.88-1.52-1.56 9.81 23.15 56.78 23.15 56.78s-27.88-35.56-36.22-39.26c-8.35-3.7-10.25 4.97-5.43 11.95 4.83 6.99 24.54 38.9 24.54 38.9s-23.66-16.96-30.71-10.39c-7.04 6.57 52.13 52.7 60.64 53 21.79 38.5 62.44 110.72 85.45 107.49 36.21-19.15 82.45-66.32 82.45-66.32l-5.71 1.02-.01-.01zm0 0h0z" fill="#f9ece7"/><path d="M310.59 276.38s-73.5 20.43-105.14 70.43c14.3 18.36 37.77 54.09 37.77 54.09l36.75-30.62-17.37 161.26h207.19L459.6 411.1s45.94-1.02 57.15-8.17c-10.22-34.71-24.49-78.58-33.68-86.75-9.2-8.17-42.85-30.62-54.09-36.75-14.3 34.71-43.9 60.22-64.3 59.2-24.49-3.06-39.79-35.7-45.92-45.92-6.13-10.21-8.17-16.35-8.17-16.35v.02zm0 0h0z" fill="#d8e17d"/><path d="M514.71 529.51h-45.94l-9.17-118.39 45.92-5.11z" fill="#f9ece7"/><path d="M413.12 251.14l13.07 19.3c4.77-12.28 6.82-28.32 6.82-28.32 10.49 23.38 2.84 26.36 2.84 26.36s24.32-24.04 25.74-44.26c4.18 13.16 6.61 22.7 6.61 22.7s10.65-73.69 8.22-105.87c11.97 1.77 5.82-14.1 5.82-14.1s-1.79-17.61-8.45-39.51c0 0-22.97-72.06-90.23-81.87l-4.4.17s-36-6.73-67.99 14.71c-28.53 18.44-56.6 72.97-59.92 135.15 4.5-5.83 18.17-17.77 18.17-17.77s-7.45 82.52-3.49 99.18c12.61-19.57 14.78-21.03 14.78-21.03s11.18 40.98 3.95 43.99c10.15 5.39 18.42-6.49 26.08-15.73 3.25 3.07 8.27 24.57 10.59 26.77 0 0 12.72-8.08 12.72-23.24-25.47-16.2-61.25-34.76-62.29-114.27 21.35 2.07 37.12-19.29 45.06-25.47 7.96-6.18 25.47-23.41 25.47-23.41s51.89 45.14 85.61 32.77c-20.62-10.31-19.49-31.74-19.49-31.74s33.25 23.69 50.77 21.63c6.19 29.6 12.74 61.73-6.74 103.69-21.35 24.74-39.91 35.78-39.91 35.78l.58 4.4.01-.01zm0 0h0z" fill="#6e240d"/><path d="M415.93 142.27a10.61 10.61 0 0 0-4.12.78c-1.54.51-2.57 1.28-3.85 2.57-2.06 2.06-3.35 4.62-3.35 7.72-.26 3.08.77 5.65 3.09 7.97 2.05 2.06 4.62 3.34 7.97 3.34 3.09.26 5.66-1.03 7.97-3.08 2.06-2.32 3.35-4.89 3.35-7.98.25-2.83-1.03-5.65-3.09-7.97-2.31-2.06-4.89-3.34-7.97-3.34v-.01zm0 0h0zm-83.08 21.98c3.08-.51 5.4-2.31 6.95-5.14 1.54-2.57 2.05-5.4 1.28-8.49-.77-2.83-2.31-5.14-5.14-6.95-2.57-1.54-5.66-1.8-8.49-1.03-3.09.52-5.4 2.32-6.95 4.89-1.54 2.83-2.06 5.66-1.28 8.75.77 2.83 2.57 5.14 5.14 6.95 2.83 1.54 5.66 1.79 8.49 1.02z" fill-rule="nonzero"/><g stroke="#000" stroke-linejoin="round" stroke-miterlimit="22.9256" fill="none"><path d="M416.7 199.6c-26.75 22.89-53.49 24.17-80.24 4.11" stroke-width="5.42"/><g stroke-width="9.48"><path d="M439.12 226.56c-18.04 19.08-41.65 30.64-67.51 30.64-56.66 0-102.59-55.55-102.59-124.09m144.81 113.15s-5.87 26.28 2.78 28.75c8.64 2.47 43.52 20.02 67.3 41.01 8.58 7.58 25.01 52.92 30.57 86.13.27 1.62-8.79 1.44-8.53 3.09 2.06 57.4 8.53 114.59 8.53 114.59v12.35"/><path d="M456.38 370.96l12.35 159.13M334.26 247.5c-2.47 31.17-27.46 29.12-27.46 29.12s-35.44 9.76-73.64 38.78c-7.88 5.99-17.7 18.59-25.85 27.85-2.05 2.32 3.68 5.95 1.62 8.25-19.29 21.47-45.02 46.22-45.02 46.22l-49.28-54.15s12.61-48.12 11.61-68.56c-11.15-17.99-24.51 26.75-24.51 26.75s-3.98-36.63-9.39-51.09c-2.33-6.22-4.87-11.23-7.36-12.86-8.29-5.4-1.58 51.45-1.58 51.45s-17.73-31.02-27.43-42.03c0 0-8.86-7.93-9.88-1.53-1.56 9.81 23.15 56.78 23.15 56.78s-27.88-35.55-36.22-39.26c-8.35-3.69-10.25 4.97-5.43 11.95 4.83 6.99 24.54 38.9 24.54 38.9s-23.66-16.96-30.71-10.39c-7.04 6.57 52.13 52.7 60.64 53 21.79 38.5 62.44 110.72 85.45 107.48 36.21-19.15 82.45-66.32 82.45-66.32l29.23-25.63-16.36 160.35"/></g><path d="M2.6 270.72s16.01-54.13 77.52-57.82m-72.61 9.83s19.7-24.57 50.45-23.34" stroke-width="5.42"/><path d="M363.99 183.38s10.5 7.3 18.85 0" stroke-width="4.06"/><g stroke-width="9.48"><path d="M310.41 276.92s25.92 60.46 53.99 61.53c28.08 1.08 54-32.38 63.7-56.15m-218.08 68.11s28.08 37.66 34.54 51.73m259.15 4.35l-45.38 6.46M272.69 133.5c30.69-1.09 48.26-33.32 71.16-50.5 0 0 51.8 43.73 84.07 33.54-18.53-13.58-20.57-32.81-20.57-32.81s46.08 31.18 62.91 24.38"/><path d="M413.12 251.14l13.07 19.3c4.77-12.28 6.82-28.32 6.82-28.32 10.49 23.38 2.84 26.36 2.84 26.36s24.32-24.04 25.74-44.26c4.18 13.16 6.61 22.7 6.61 22.7s10.65-73.69 8.22-105.87c11.97 1.77 5.82-14.1 5.82-14.1s-1.79-17.61-8.45-39.51c0 0-22.97-72.06-90.23-81.87l-4.4.17s-36-6.73-67.99 14.71c-28.53 18.44-56.6 72.97-59.92 135.15 4.5-5.83 18.17-17.77 18.17-17.77s-7.45 82.52-3.49 99.18c12.61-19.57 14.78-21.03 14.78-21.03s11.18 40.98 3.95 43.99c10.15 5.39 18.42-6.49 26.08-15.73 3.25 3.07 8.27 24.57 10.59 26.77 0 0 12.72-8.08 12.72-23.24-25.47-16.2-61.25-34.76-62.29-114.27 21.35 2.07 37.12-19.29 45.06-25.47 7.96-6.18 25.47-23.41 25.47-23.41s43.37 38.78 85.61 31.93c-20.62-10.31-19.49-30.9-19.49-30.9s36.62 24.54 54.14 22.47c6.19 29.6 9.7 70.88-10.11 102.84-17.85 24.07-39.91 35.79-39.91 35.79l.58 4.4.01-.01z"/></g></g><path d="M432.92 507.82h-29.25l-11.58-30.53H338.3l-11.14 30.53h-28.72l52.07-134.11h28.69l53.72 134.11zm-49.63-53.19l-18.64-49.64-18.1 49.64h36.74z" stroke="#54541e" stroke-width="4.48" stroke-miterlimit="22.9256" fill="#54541e" fill-rule="nonzero"/><defs /></svg>